# xmcd CD database file
#
# Track frame offsets:
#	150
#	25393
#	51898
#	87312
#	115013
#	147202
#	164362
#	199772
#	238318
#	276996
#
# Disc length: 4058 seconds
#
# Revision: 1
# Processed by: cddbd v1.5.2PL0 Copyright (c) Steve Scherf et al.
# Submitted via: CDex 1.51
#
DISCID=8f0fd80a
DTITLE=Amanda Tosoff - Wait and See
DYEAR=2008
DGENRE=Jazz
TTITLE0=Soaring 
TTITLE1=Julia's Blues
TTITLE2=New 
TTITLE3=Shorinji Kempo
TTITLE4=Sad Clown
TTITLE5=Robyn's Song  
TTITLE6=Wait and See 
TTITLE7=Stove Top 
TTITLE8=Let Me Know
TTITLE9=Re-entry 
EXTD=YEAR: 2008
EXTT0=
EXTT1=
EXTT2=
EXTT3=
EXTT4=
EXTT5=
EXTT6=
EXTT7=
EXTT8=
EXTT9=
PLAYORDER=
